<svg version="1.1" id="Layer_1" xmlns="http://www.w3.org/2000/svg" xmlns:xlink="http://www.w3.org/1999/xlink" x="0px" y="0px"
	 width="100%" viewBox="0 0 1024 1024" enable-background="new 0 0 1024 1024" xml:space="preserve">
<path fill="#FDF6EF" opacity="1.000000" stroke="none" 
	d="
M650.000000,1025.000000 
	C433.333344,1025.000000 217.166672,1025.000000 1.000000,1025.000000 
	C1.000000,683.666687 1.000000,342.333344 1.000000,1.000000 
	C342.333344,1.000000 683.666687,1.000000 1025.000000,1.000000 
	C1025.000000,342.333344 1025.000000,683.666687 1025.000000,1025.000000 
	C900.166687,1025.000000 775.333313,1025.000000 650.000000,1025.000000 
M441.072266,362.864441 
	C441.072266,374.752228 441.072266,386.639984 441.072266,398.826599 
	C465.566528,391.303009 491.208893,389.331024 517.914124,389.122833 
	C540.321594,389.709869 562.276367,393.461334 584.841980,399.280518 
	C584.589294,395.354614 584.383484,392.157074 584.355835,388.069580 
	C584.258179,385.047211 584.160522,382.024872 584.256836,378.080963 
	C584.116455,371.055023 583.976074,364.029083 584.022888,356.081329 
	C583.860779,347.348907 583.698608,338.616455 584.306763,329.810455 
	C584.558960,329.756409 584.811157,329.702393 585.493713,329.861328 
	C585.493713,329.861328 585.968811,329.792328 586.626343,330.031921 
	C587.088501,330.008026 587.550598,329.984131 588.645447,330.309784 
	C590.089966,330.312653 591.534546,330.315521 593.716003,330.582947 
	C597.475769,329.673981 601.235596,328.765015 605.694153,327.808655 
	C624.056519,319.132080 632.313843,297.890656 625.231262,277.925842 
	C621.689209,267.941345 615.840454,259.946899 606.216187,255.173843 
	C594.728516,249.476715 583.138611,250.282333 571.781006,255.488358 
	C552.750244,219.617615 518.355103,213.673798 495.150055,220.588379 
	C487.736542,224.650177 480.323029,228.711960 472.273254,233.032043 
	C466.665863,240.076202 461.070923,247.130356 455.431488,254.148743 
	C454.879547,254.835632 454.053467,255.302277 452.872406,255.307083 
	C440.086975,249.392319 427.760620,249.849930 415.326233,258.127258 
	C412.521851,261.005829 409.717468,263.884399 406.311157,267.181183 
	C406.034607,267.846588 405.758087,268.511993 405.139313,269.232697 
	C405.139313,269.232697 404.997131,269.548889 404.466644,269.885376 
	C393.597229,289.385956 398.483978,313.072235 415.629456,324.947510 
	C423.736298,330.562378 432.791260,330.469604 441.992737,331.043823 
	C441.755646,341.367340 441.518555,351.690887 441.072266,362.864441 
M503.319977,492.653748 
	C491.733795,491.142426 481.155975,487.063080 471.319458,480.726624 
	C469.255951,479.397430 466.211304,479.591400 463.618805,479.083466 
	C463.146637,481.841064 462.134552,484.641388 462.348602,487.344635 
	C462.579254,490.257477 463.690735,493.196106 464.879791,495.922028 
	C472.646729,513.727539 484.703094,526.492371 505.750885,529.802795 
	C511.836365,529.640625 517.921814,529.478516 524.737061,529.418762 
	C547.748169,524.695312 559.644348,509.167114 564.986877,487.555359 
	C565.567322,485.207275 565.023621,481.302490 563.460999,480.065094 
	C561.916016,478.841705 557.804077,479.144562 555.880188,480.402344 
	C545.784241,487.002991 534.653992,490.466431 522.030518,492.533234 
	C516.029785,492.667877 510.029114,492.802551 503.319977,492.653748 
M415.341583,379.101685 
	C405.930389,370.449188 395.453583,368.448425 384.338867,373.411530 
	C380.005890,377.668396 374.779602,381.337250 371.514771,386.297180 
	C363.193024,398.939667 361.870056,413.388428 363.064178,428.129791 
	C365.006104,452.103424 379.291077,472.466034 401.648346,477.495880 
	C405.509583,491.451355 408.301239,505.408203 413.220795,518.569641 
	C426.050781,552.894226 449.776978,576.866760 484.424408,589.552612 
	C492.382812,592.466431 494.851685,591.357971 498.839447,583.231812 
	C497.737793,580.037598 497.447510,576.096497 495.350433,573.818665 
	C491.928131,570.101318 487.494110,567.211365 483.192749,564.426697 
	C470.143097,555.978516 457.709595,546.815857 447.611053,534.856995 
	C433.712494,518.398132 424.207520,499.773193 420.204865,478.488861 
	C419.544220,474.975830 419.589081,472.089722 422.837646,469.233307 
	C429.130096,463.700409 432.694275,456.370819 434.348602,447.342438 
	C438.622406,428.023193 434.342957,410.076721 425.282227,392.179047 
	C422.136078,387.995087 418.989929,383.811096 415.341583,379.101685 
M607.886230,429.592255 
	C608.436279,423.790009 609.060730,417.993622 609.519531,412.184174 
	C610.279846,402.555054 611.186646,392.924438 611.448853,383.278656 
	C611.511902,380.958801 609.287781,378.576813 608.115540,376.223419 
	C606.568542,378.062408 604.022827,379.710602 603.629333,381.769989 
	C599.788818,401.870087 595.797974,421.966339 592.916931,442.215485 
	C591.202454,454.265625 595.407410,464.809021 605.504517,472.585846 
	C606.885376,473.649445 607.818176,476.517120 607.537231,478.329193 
	C604.247131,499.553009 595.562439,518.375732 581.797424,534.882019 
	C570.082336,548.930237 555.156677,558.872925 539.814514,568.382996 
	C536.838806,570.227539 534.016113,573.000061 532.293640,576.013672 
	C530.119873,579.816833 529.506836,584.391724 532.801758,588.204468 
	C536.126221,592.051392 540.209717,590.972046 544.304199,589.502075 
	C569.343628,580.512512 589.148193,564.948242 603.153137,542.285950 
	C614.698120,523.604187 621.516968,503.163422 624.622192,481.484711 
	C625.067322,478.377045 626.255493,477.095245 629.302368,476.257019 
	C643.904297,472.240021 654.404114,460.935913 654.714905,445.829407 
	C655.145569,424.898010 653.807068,403.924500 652.915527,382.982269 
	C652.844360,381.310608 650.363342,379.741516 649.002258,378.124756 
	C647.705811,379.805817 645.547546,381.354919 645.266357,383.191345 
	C644.210144,390.091675 643.661499,397.077545 643.117737,404.046570 
	C642.340332,414.009857 641.699097,423.984344 641.074768,433.958710 
	C640.861206,437.370605 639.585266,440.085052 635.889343,439.986267 
	C632.257202,439.889191 630.918518,437.111267 630.823853,433.744873 
	C630.791077,432.581451 630.895203,431.414215 630.935669,430.248688 
	C631.450256,415.433899 632.062561,400.621399 632.405518,385.802643 
	C632.484070,382.407379 633.629578,377.368805 628.324585,377.138031 
	C623.543274,376.929993 623.833923,381.821899 623.414734,385.087738 
	C621.485474,400.118256 619.794434,415.179230 617.979004,430.224579 
	C617.761353,432.029144 617.830078,434.222961 616.823730,435.484802 
	C615.651917,436.954071 613.404297,438.415558 611.696411,438.335083 
	C610.356201,438.271912 608.837219,436.019501 607.952148,434.430725 
	C607.383545,433.410034 607.820312,431.829254 607.886230,429.592255 
M242.540649,735.309509 
	C244.580475,735.309509 246.620285,735.309509 248.660110,735.309509 
	C248.844254,734.864136 249.028397,734.418701 249.212540,733.973328 
	C236.919067,718.751160 224.625595,703.528992 212.136612,688.064758 
	C224.245010,673.288147 236.354797,658.509888 249.298752,642.713623 
	C236.707291,641.792725 225.774811,639.959412 219.209213,652.023438 
	C218.110764,654.041809 216.393555,655.727722 214.934525,657.544983 
	C208.431580,665.644348 201.918564,673.735657 194.416840,683.063965 
	C194.416840,671.979004 194.438416,662.399597 194.411407,652.820312 
	C194.377136,640.668091 194.250992,640.782288 182.199341,641.128296 
	C177.126282,641.273987 175.843109,643.140259 175.892456,648.034546 
	C176.139343,672.512451 176.027817,696.994019 176.022278,721.474304 
	C176.019089,735.607483 176.000244,735.515686 190.320190,735.238403 
	C193.589523,735.175049 194.658615,734.156738 194.588898,730.875671 
	C194.408493,722.387024 194.510559,713.890808 194.611389,705.398926 
	C194.639297,703.047913 195.057632,700.701477 195.296844,698.352966 
	C203.424683,706.356689 210.855957,714.285706 216.981155,723.120300 
	C223.195694,732.083801 230.370605,737.448181 242.540649,735.309509 
M642.119751,735.319885 
	C643.674744,735.230896 645.229675,735.141846 647.465881,735.013855 
	C646.615173,732.227966 646.106018,730.167847 645.365356,728.194641 
	C636.357605,704.195557 627.231750,680.240417 618.316223,656.207336 
	C613.478271,643.165771 616.448181,644.233154 600.878113,644.242981 
	C596.030640,644.246033 593.827637,646.256042 592.246948,650.626831 
	C582.734680,676.929321 572.984619,703.145813 563.329834,729.396851 
	C562.728455,731.031921 562.260864,732.716125 561.396851,735.425354 
	C566.732422,735.425354 571.206787,735.814575 575.557312,735.249817 
	C577.529297,734.993896 580.046143,733.239746 580.928833,731.472473 
	C582.768982,727.788269 583.831909,723.683044 584.934692,719.674011 
	C585.765015,716.655762 587.291077,715.410400 590.551147,715.490967 
	C598.544922,715.688416 606.549500,715.412354 614.546265,715.540039 
	C623.038574,715.675598 621.524475,713.756470 624.747253,723.046265 
	C628.946594,735.151245 628.807373,735.199524 642.119751,735.319885 
M404.033813,644.076050 
	C402.471558,643.114014 400.997284,641.571045 399.327606,641.318054 
	C396.398865,640.874451 393.348602,641.292847 390.352509,641.218201 
	C386.936707,641.133179 385.801147,642.616760 385.816559,646.072632 
	C385.941406,674.068909 385.891174,702.065979 385.913605,730.062805 
	C385.914886,731.659607 386.085266,733.256348 386.218262,735.572876 
	C392.420441,733.515930 399.245880,738.541138 404.094940,731.818481 
	C423.345306,744.776917 447.032806,734.505371 450.220795,711.305176 
	C451.022247,705.472778 450.764557,699.273560 449.753723,693.458374 
	C447.473602,680.341125 436.633759,670.523315 423.774628,670.722778 
	C417.138672,670.825684 410.544525,673.623840 404.121552,675.158752 
	C404.121552,665.904541 404.121552,655.440369 404.033813,644.076050 
M647.003540,700.178101 
	C646.406982,708.290039 647.286499,716.155396 651.350952,723.361755 
	C658.487061,736.014221 677.410645,743.204590 694.822571,730.363647 
	C694.704163,735.236267 697.720398,735.768494 701.350891,735.520081 
	C703.005066,735.406799 704.701843,735.377075 706.335999,735.611206 
	C710.843933,736.257080 711.974548,734.268921 711.944214,729.968079 
	C711.765564,704.674805 711.955139,679.379028 711.792053,654.085571 
	C711.709778,641.329529 714.401306,642.457886 699.702515,642.319580 
	C695.288574,642.278076 693.928162,643.920227 694.038452,648.201904 
	C694.284363,657.751892 694.115295,667.312561 694.115295,676.259338 
	C689.211731,674.419373 684.792297,671.803955 680.105713,671.173218 
	C662.666382,668.825867 649.582520,680.254395 647.003540,700.178101 
M741.262756,671.618530 
	C724.565186,676.666138 716.886353,690.948425 719.874268,711.400574 
	C722.409668,728.755005 735.371033,739.095398 752.523621,736.693726 
	C757.561646,735.988281 762.319153,733.279846 766.890442,731.604736 
	C767.953491,732.608887 769.225891,734.863525 770.752625,735.051270 
	C774.985107,735.571960 779.323547,735.231750 784.237915,735.231750 
	C784.237915,732.902954 784.239075,730.947083 784.237793,728.991272 
	C784.221191,704.337952 784.208130,679.684692 784.185791,655.031372 
	C784.173950,641.984680 784.169128,642.088013 770.904968,642.411865 
	C767.573120,642.493225 766.606445,643.656189 766.684875,646.861206 
	C766.884460,655.019104 766.813904,663.184265 766.789368,671.346375 
	C766.784363,673.025696 766.508850,674.704224 766.294556,677.089783 
	C758.628723,670.657593 750.546570,669.979248 741.262756,671.618530 
M269.727661,717.497864 
	C269.729401,711.671326 269.719147,705.844727 269.735931,700.018250 
	C269.757538,692.518005 275.881744,686.315002 283.201019,686.356018 
	C289.474243,686.391174 293.137482,691.057739 293.215607,699.308167 
	C293.288147,706.965332 293.212524,714.623657 293.250824,722.281311 
	C293.316772,735.470398 293.333496,735.334045 306.488190,735.417908 
	C310.368652,735.442627 311.377686,733.899475 311.350342,730.396362 
	C311.255524,718.244568 311.421906,706.090332 311.276794,693.939636 
	C311.241516,690.984741 310.697235,687.951233 309.864868,685.106628 
	C307.437988,676.812683 301.871246,671.924438 293.246155,670.623474 
	C284.490387,669.302734 277.013153,672.212280 269.811768,678.458191 
	C269.811768,669.401855 269.789154,661.300720 269.816986,653.199768 
	C269.860809,640.436646 269.880493,640.558411 256.822937,641.127380 
	C252.820694,641.301758 251.392136,642.587463 251.419937,646.765259 
	C251.595047,673.067566 251.519379,699.371582 251.510330,725.675049 
	C251.506317,737.349365 250.893539,735.242981 260.935944,735.263794 
	C262.600342,735.267212 264.274811,735.097290 265.927094,735.228516 
	C268.733826,735.451233 269.845306,734.309814 269.753204,731.480225 
	C269.612518,727.156555 269.723663,722.824707 269.727661,717.497864 
M339.561127,736.901794 
	C346.188629,735.256775 352.816132,733.611694 359.594940,731.929077 
	C360.947784,735.583374 366.415161,736.859375 375.612335,734.629517 
	C375.612335,719.517151 376.335999,704.357422 375.349884,689.309692 
	C374.725372,679.779968 367.790192,674.066650 358.454651,671.897156 
	C347.362976,669.319397 336.663086,671.249329 326.071533,674.801208 
	C322.001343,676.166260 322.039337,678.629333 323.459747,681.776733 
	C324.841003,684.837402 324.623779,689.219849 330.552429,687.594177 
	C336.259613,686.029297 342.321198,685.131714 348.233215,685.100220 
	C355.320312,685.062378 358.950439,690.020447 357.975037,697.447510 
	C355.761108,697.447510 353.448486,697.243286 351.183868,697.486328 
	C344.759338,698.175781 338.154633,698.320068 331.986877,700.012634 
	C321.797974,702.808716 317.111694,710.121521 318.063690,719.687561 
	C319.055603,729.654236 326.237366,735.650391 339.561127,736.901794 
M511.221252,735.272766 
	C512.157166,734.087708 513.888367,732.914734 513.906616,731.715698 
	C514.101746,718.900208 514.269348,706.074402 513.950317,693.263733 
	C513.674500,682.185425 507.593903,674.811340 496.865784,672.047913 
	C486.180756,669.295593 475.789948,671.315979 465.450836,674.400452 
	C459.948792,676.041870 460.927338,679.321472 462.213013,683.297852 
	C463.505188,687.294373 465.151031,688.588013 469.800812,687.484131 
	C475.973572,686.018799 482.586639,685.293335 488.886230,685.798828 
	C494.874786,686.279358 497.051544,690.695129 496.096497,697.590271 
	C492.053772,697.590271 487.851105,697.106079 483.808472,697.704041 
	C477.787842,698.594666 471.604645,699.548157 465.993378,701.753845 
	C458.777740,704.590271 455.698975,710.885437 455.898682,718.595459 
	C456.159668,728.672363 463.672302,735.843018 474.814087,736.806274 
	C482.893005,737.504822 490.261414,735.543579 497.244751,730.032410 
	C497.372589,734.905090 500.052429,735.411316 503.392090,735.191284 
	C505.709717,735.038635 508.050262,735.234131 511.221252,735.272766 
M797.645447,680.905762 
	C800.084595,688.460693 800.030640,688.208740 807.491089,686.611694 
	C812.328186,685.576172 817.371094,684.819397 822.285828,684.987854 
	C829.838745,685.246704 833.210754,689.620483 832.559326,697.667419 
	C828.173462,697.667419 823.667786,697.258789 819.270020,697.773132 
	C814.030212,698.385925 808.635071,699.138489 803.750488,700.996094 
	C795.225220,704.238159 791.263611,711.696899 792.331421,720.472900 
	C793.369080,729.001648 798.887512,734.489502 807.903625,736.257629 
	C817.074646,738.056152 825.313416,735.876038 833.395447,730.080750 
	C833.512573,735.392944 836.743408,735.454651 840.230286,735.256531 
	C842.220337,735.143555 844.231628,735.172119 846.220032,735.318054 
	C849.042847,735.525085 850.036133,734.301819 850.018799,731.524780 
	C849.941711,719.205811 850.312317,706.875732 849.907410,694.569824 
	C849.584961,684.769287 845.709961,676.670837 835.692383,673.153320 
	C823.264526,668.789490 811.077820,670.680603 799.229309,675.480225 
	C798.154541,675.915527 797.968628,678.545105 797.645447,680.905762 
M524.862183,692.501282 
	C524.906067,702.324097 524.961792,712.146851 524.991028,721.969727 
	C525.031433,735.546570 525.022583,735.471924 538.586304,735.432800 
	C541.862122,735.423401 543.395325,734.758606 543.256409,730.973572 
	C542.938904,722.326660 543.098083,713.661926 543.083801,705.004395 
	C543.067749,695.233643 548.223938,689.652100 558.101624,688.737671 
	C561.179077,688.452759 565.583374,689.335754 567.005493,687.664001 
	C568.783936,685.573303 568.221436,681.406738 568.474792,678.121277 
	C568.951599,671.937622 567.832153,670.856384 561.620605,671.026611 
	C553.959717,671.236511 548.267334,675.285278 543.250488,680.794739 
	C540.534302,672.840637 540.534302,672.840637 531.884094,672.914673 
	C530.885132,672.923218 529.882568,672.992981 528.887939,672.931458 
	C525.956604,672.750427 524.659119,673.919189 524.784790,677.018311 
	C524.980286,681.839111 524.852417,686.673035 524.862183,692.501282 
M469.187073,450.212555 
	C473.958466,457.639313 483.601929,455.964020 486.827972,449.577087 
	C489.050781,445.176361 488.060913,439.919373 484.432037,436.823364 
	C481.043671,433.932495 475.559723,433.678131 471.862885,436.240356 
	C467.652130,439.158752 466.670319,443.466003 469.187073,450.212555 
M547.369324,434.824829 
	C540.570862,435.543274 536.431213,439.617371 536.611389,445.412415 
	C536.769043,450.485748 540.610413,454.729889 545.474670,455.205048 
	C551.154785,455.759979 555.765076,452.074402 556.670898,446.254486 
	C557.506470,440.886139 554.160278,436.437012 547.369324,434.824829 
z"/>
<path fill="#FEBB0B" opacity="1.000000" stroke="none" 
	d="
M607.846375,430.045898 
	C607.820312,431.829254 607.383545,433.410034 607.952148,434.430725 
	C608.837219,436.019501 610.356201,438.271912 611.696411,438.335083 
	C613.404297,438.415558 615.651917,436.954071 616.823730,435.484802 
	C617.830078,434.222961 617.761353,432.029144 617.979004,430.224579 
	C619.794434,415.179230 621.485474,400.118256 623.414734,385.087738 
	C623.833923,381.821899 623.543274,376.929993 628.324585,377.138031 
	C633.629578,377.368805 632.484070,382.407379 632.405518,385.802643 
	C632.062561,400.621399 631.450256,415.433899 630.935669,430.248688 
	C630.895203,431.414215 630.791077,432.581451 630.823853,433.744873 
	C630.918518,437.111267 632.257202,439.889191 635.889343,439.986267 
	C639.585266,440.085052 640.861206,437.370605 641.074768,433.958710 
	C641.699097,423.984344 642.340332,414.009857 643.117737,404.046570 
	C643.661499,397.077545 644.210144,390.091675 645.266357,383.191345 
	C645.547546,381.354919 647.705811,379.805817 649.002258,378.124756 
	C650.363342,379.741516 652.844360,381.310608 652.915527,382.982269 
	C653.807068,403.924500 655.145569,424.898010 654.714905,445.829407 
	C654.404114,460.935913 643.904297,472.240021 629.302368,476.257019 
	C626.255493,477.095245 625.067322,478.377045 624.622192,481.484711 
	C621.516968,503.163422 614.698120,523.604187 603.153137,542.285950 
	C589.148193,564.948242 569.343628,580.512512 544.304199,589.502075 
	C540.209717,590.972046 536.126221,592.051392 532.801758,588.204468 
	C529.506836,584.391724 530.119873,579.816833 532.293640,576.013672 
	C534.016113,573.000061 536.838806,570.227539 539.814514,568.382996 
	C555.156677,558.872925 570.082336,548.930237 581.797424,534.882019 
	C595.562439,518.375732 604.247131,499.553009 607.537231,478.329193 
	C607.818176,476.517120 606.885376,473.649445 605.504517,472.585846 
	C595.407410,464.809021 591.202454,454.265625 592.916931,442.215485 
	C595.797974,421.966339 599.788818,401.870087 603.629333,381.769989 
	C604.022827,379.710602 606.568542,378.062408 608.115479,376.223419 
	C609.287781,378.576813 611.511902,380.958801 611.448853,383.278656 
	C611.186646,392.924438 610.279846,402.555054 609.519531,412.184174 
	C609.060730,417.993622 608.436279,423.790009 607.846375,430.045898 
z"/>
<path fill="#FDBB07" opacity="1.000000" stroke="none" 
	d="
M495.944092,220.513702 
	C518.355103,213.673798 552.750244,219.617615 571.781006,255.488358 
	C583.138611,250.282333 594.728516,249.476715 606.216187,255.173843 
	C615.840454,259.946899 621.689209,267.941345 625.231262,277.925842 
	C632.313843,297.890656 624.056519,319.132080 605.335510,327.470764 
	C604.614258,326.432251 604.431030,325.360260 603.862610,325.085754 
	C591.921997,319.318512 580.420288,312.910767 569.976196,304.598267 
	C563.644226,299.558594 556.726807,295.456238 551.999634,288.431427 
	C548.471313,283.188141 544.223999,277.915344 539.104126,274.386017 
	C532.674500,269.953827 526.428955,265.704437 521.090515,259.831146 
	C514.424011,252.496841 506.671356,246.161453 499.720551,239.068542 
	C496.751892,236.039215 493.945374,232.450424 492.434570,228.581131 
	C491.789185,226.928345 494.656281,223.914886 495.891815,221.501541 
	C496.028992,221.233582 495.932312,220.845871 495.944092,220.513702 
z"/>
<path fill="#FE8E0E" opacity="1.000000" stroke="none" 
	d="
M406.913086,266.762939 
	C409.717468,263.884399 412.521851,261.005829 415.697205,258.396545 
	C418.683807,262.054291 421.509277,265.303162 423.873993,268.858459 
	C429.886658,277.898285 438.527832,283.898926 447.375366,289.681396 
	C457.594604,296.360352 467.827057,303.021729 478.178558,309.491058 
	C479.157349,310.102753 481.026031,309.290527 482.704163,309.423584 
	C487.787018,317.806641 494.972961,322.734985 503.952942,325.495728 
	C504.179993,327.296509 504.008575,329.070801 504.785645,330.181366 
	C511.179962,339.319702 519.999084,345.253754 530.369690,349.080475 
	C531.559570,349.519562 532.684753,350.329620 533.633301,351.194305 
	C538.628174,355.747559 543.234863,360.793762 548.576538,364.885040 
	C559.007751,372.874512 569.202332,381.952667 584.062866,379.002502 
	C584.160522,382.024872 584.258179,385.047211 583.839722,388.525452 
	C581.400757,389.388153 579.494019,389.928070 577.550354,390.163849 
	C575.653870,390.393921 573.364563,391.015228 571.860168,390.254211 
	C562.584961,385.562134 553.447693,380.591644 544.345947,375.566315 
	C541.749878,374.132996 539.588440,371.880432 536.948059,370.564575 
	C519.241333,361.739960 501.431244,353.122650 483.729065,344.289032 
	C480.802094,342.828430 478.479553,339.862915 475.463989,338.929535 
	C467.014496,336.314240 458.784241,333.569489 452.568817,326.826660 
	C452.250031,326.480865 451.649933,326.411499 451.265106,326.106903 
	C445.446686,321.502258 439.448486,317.100067 433.885651,312.203644 
	C427.444855,306.534454 421.331360,300.486938 415.184845,294.491760 
	C409.643311,289.086700 401.864502,284.629364 406.726807,274.585632 
	C407.275787,273.451630 405.626862,271.253540 404.997131,269.548889 
	C404.997131,269.548889 405.139313,269.232697 405.649384,269.021240 
	C406.410645,268.127533 406.661865,267.445251 406.913086,266.762939 
z"/>
<path fill="#EF422B" opacity="1.000000" stroke="none" 
	d="
M242.109314,735.303101 
	C230.370605,737.448181 223.195694,732.083801 216.981155,723.120300 
	C210.855957,714.285706 203.424683,706.356689 195.296844,698.352966 
	C195.057632,700.701477 194.639297,703.047913 194.611389,705.398926 
	C194.510559,713.890808 194.408493,722.387024 194.588898,730.875671 
	C194.658615,734.156738 193.589523,735.175049 190.320190,735.238403 
	C176.000244,735.515686 176.019089,735.607483 176.022278,721.474304 
	C176.027817,696.994019 176.139343,672.512451 175.892456,648.034546 
	C175.843109,643.140259 177.126282,641.273987 182.199341,641.128296 
	C194.250992,640.782288 194.377136,640.668091 194.411407,652.820312 
	C194.438416,662.399597 194.416840,671.979004 194.416840,683.063965 
	C201.918564,673.735657 208.431580,665.644348 214.934525,657.544983 
	C216.393555,655.727722 218.110764,654.041809 219.209213,652.023438 
	C225.774811,639.959412 236.707291,641.792725 249.298752,642.713623 
	C236.354797,658.509888 224.245010,673.288147 212.136612,688.064758 
	C224.625595,703.528992 236.919067,718.751160 249.212540,733.973328 
	C249.028397,734.418701 248.844254,734.864136 248.660110,735.309509 
	C246.620285,735.309509 244.580475,735.309509 242.109314,735.303101 
z"/>
<path fill="#FEB00B" opacity="1.000000" stroke="none" 
	d="
M495.547058,220.551041 
	C495.932312,220.845871 496.028992,221.233582 495.891815,221.501541 
	C494.656281,223.914886 491.789185,226.928345 492.434570,228.581131 
	C493.945374,232.450424 496.751892,236.039215 499.720551,239.068542 
	C506.671356,246.161453 514.424011,252.496841 521.090515,259.831146 
	C526.428955,265.704437 532.674500,269.953827 539.104126,274.386017 
	C544.223999,277.915344 548.471313,283.188141 551.999634,288.431427 
	C556.726807,295.456238 563.644226,299.558594 569.976196,304.598267 
	C580.420288,312.910767 591.921997,319.318512 603.862610,325.085754 
	C604.431030,325.360260 604.614258,326.432251 604.986084,327.494446 
	C601.235596,328.765015 597.475769,329.673981 593.212646,330.168610 
	C591.143799,329.822937 589.578247,329.891571 588.012756,329.960236 
	C587.550598,329.984131 587.088501,330.008026 586.219482,329.785034 
	C585.541626,329.329803 585.291870,329.366577 585.063354,329.648376 
	C584.811157,329.702393 584.558960,329.756409 583.492188,329.888611 
	C579.217468,329.977631 575.742371,330.195740 572.300964,329.947144 
	C567.943909,329.632385 563.614258,328.938019 558.881104,328.391479 
	C544.029541,327.497681 538.675476,321.981415 537.920715,307.767487 
	C537.814209,305.762848 536.016418,303.848053 534.993774,301.523193 
	C533.784241,299.760986 532.778564,298.101196 531.334229,297.036591 
	C529.232056,295.487122 526.706360,294.522186 524.550293,293.034180 
	C517.550293,288.203247 510.712036,283.135986 503.673553,278.363129 
	C488.562500,268.116119 475.896942,256.197510 473.896606,236.613632 
	C473.763824,235.313644 473.247467,234.052811 472.909546,232.773743 
	C480.323029,228.711960 487.736542,224.650177 495.547058,220.551041 
z"/>
<path fill="#FD8510" opacity="1.000000" stroke="none" 
	d="
M404.731873,269.717133 
	C405.626862,271.253540 407.275787,273.451630 406.726807,274.585632 
	C401.864502,284.629364 409.643311,289.086700 415.184845,294.491760 
	C421.331360,300.486938 427.444855,306.534454 433.885651,312.203644 
	C439.448486,317.100067 445.446686,321.502258 451.265106,326.106903 
	C451.649933,326.411499 452.250031,326.480865 452.568817,326.826660 
	C458.784241,333.569489 467.014496,336.314240 475.463989,338.929535 
	C478.479553,339.862915 480.802094,342.828430 483.729065,344.289032 
	C501.431244,353.122650 519.241333,361.739960 536.948059,370.564575 
	C539.588440,371.880432 541.749878,374.132996 544.345947,375.566315 
	C553.447693,380.591644 562.584961,385.562134 571.860168,390.254211 
	C573.364563,391.015228 575.653870,390.393921 577.550354,390.163849 
	C579.494019,389.928070 581.400757,389.388153 583.750671,388.970459 
	C584.383484,392.157074 584.589294,395.354614 584.841980,399.280518 
	C562.276367,393.461334 540.321594,389.709869 517.316895,388.736694 
	C512.180725,385.882172 507.641724,383.413757 502.921265,380.654083 
	C500.369049,378.852905 497.998138,377.343109 495.627441,375.833008 
	C479.058533,365.278595 463.592133,353.422943 450.713409,338.413361 
	C448.114594,335.384583 444.905548,332.879364 441.977844,330.132782 
	C432.791260,330.469604 423.736298,330.562378 415.629456,324.947510 
	C398.483978,313.072235 393.597229,289.385956 404.731873,269.717133 
z"/>
<path fill="#21364C" opacity="1.000000" stroke="none" 
	d="
M641.669678,735.309143 
	C628.807373,735.199524 628.946594,735.151245 624.747253,723.046265 
	C621.524475,713.756470 623.038574,715.675598 614.546265,715.540039 
	C606.549500,715.412354 598.544922,715.688416 590.551147,715.490967 
	C587.291077,715.410400 585.765015,716.655762 584.934692,719.674011 
	C583.831909,723.683044 582.768982,727.788269 580.928833,731.472473 
	C580.046143,733.239746 577.529297,734.993896 575.557312,735.249817 
	C571.206787,735.814575 566.732422,735.425354 561.396851,735.425354 
	C562.260864,732.716125 562.728455,731.031921 563.329834,729.396851 
	C572.984619,703.145813 582.734680,676.929321 592.246948,650.626831 
	C593.827637,646.256042 596.030640,644.246033 600.878113,644.242981 
	C616.448181,644.233154 613.478271,643.165771 618.316223,656.207336 
	C627.231750,680.240417 636.357605,704.195557 645.365356,728.194641 
	C646.106018,730.167847 646.615173,732.227966 647.465881,735.013855 
	C645.229675,735.141846 643.674744,735.230896 641.669678,735.309143 
M611.115540,683.373474 
	C608.946472,677.118347 606.777466,670.863281 604.297363,663.711304 
	C599.920715,676.542297 595.803040,688.613892 591.516174,701.181702 
	C596.445862,701.181702 600.576721,701.181763 604.707581,701.181763 
	C608.765137,701.181763 612.822693,701.181702 617.517273,701.181702 
	C615.282043,694.978394 613.324463,689.545593 611.115540,683.373474 
z"/>
<path fill="#EF422B" opacity="1.000000" stroke="none" 
	d="
M404.077698,644.526123 
	C404.121552,655.440369 404.121552,665.904541 404.121552,675.158752 
	C410.544525,673.623840 417.138672,670.825684 423.774628,670.722778 
	C436.633759,670.523315 447.473602,680.341125 449.753723,693.458374 
	C450.764557,699.273560 451.022247,705.472778 450.220795,711.305176 
	C447.032806,734.505371 423.345306,744.776917 404.094940,731.818481 
	C399.245880,738.541138 392.420441,733.515930 386.218262,735.572876 
	C386.085266,733.256348 385.914886,731.659607 385.913605,730.062805 
	C385.891174,702.065979 385.941406,674.068909 385.816559,646.072632 
	C385.801147,642.616760 386.936707,641.133179 390.352509,641.218201 
	C393.348602,641.292847 396.398865,640.874451 399.327606,641.318054 
	C400.997284,641.571045 402.471558,643.114014 404.077698,644.526123 
M408.535919,720.093323 
	C418.351044,726.156738 428.345551,722.706116 431.572723,712.052673 
	C433.524658,705.609070 433.255310,699.194580 430.515747,693.010132 
	C427.819031,686.922363 421.266144,683.993469 414.186432,685.529541 
	C407.779053,686.919800 403.711334,692.107483 403.735352,698.839355 
	C403.747223,702.171814 403.195221,705.620667 403.878387,708.806641 
	C404.676636,712.529419 406.543823,716.023071 408.535919,720.093323 
z"/>
<path fill="#21364C" opacity="1.000000" stroke="none" 
	d="
M647.042114,699.753906 
	C649.582520,680.254395 662.666382,668.825867 680.105713,671.173218 
	C684.792297,671.803955 689.211731,674.419373 694.115295,676.259338 
	C694.115295,667.312561 694.284363,657.751892 694.038452,648.201904 
	C693.928162,643.920227 695.288574,642.278076 699.702515,642.319580 
	C714.401306,642.457886 711.709778,641.329529 711.792053,654.085571 
	C711.955139,679.379028 711.765564,704.674805 711.944214,729.968079 
	C711.974548,734.268921 710.843933,736.257080 706.335999,735.611206 
	C704.701843,735.377075 703.005066,735.406799 701.350891,735.520081 
	C697.720398,735.768494 694.704163,735.236267 694.822571,730.363647 
	C677.410645,743.204590 658.487061,736.014221 651.350952,723.361755 
	C647.286499,716.155396 646.406982,708.290039 647.042114,699.753906 
M666.448792,695.311829 
	C664.339844,702.426697 664.236267,709.450867 667.816956,716.148987 
	C670.842834,721.809204 676.777039,724.326599 683.521729,723.085266 
	C689.283813,722.024780 693.288147,717.763000 693.979858,711.324219 
	C694.386475,707.540161 694.278992,703.681885 694.161865,699.864380 
	C693.914795,691.819519 690.178772,686.889404 683.564514,685.587158 
	C675.762634,684.051147 670.399963,686.919861 666.448792,695.311829 
z"/>
<path fill="#21364C" opacity="1.000000" stroke="none" 
	d="
M741.649963,671.489380 
	C750.546570,669.979248 758.628723,670.657593 766.294556,677.089783 
	C766.508850,674.704224 766.784363,673.025696 766.789368,671.346375 
	C766.813904,663.184265 766.884460,655.019104 766.684875,646.861206 
	C766.606445,643.656189 767.573120,642.493225 770.904968,642.411865 
	C784.169128,642.088013 784.173950,641.984680 784.185791,655.031372 
	C784.208130,679.684692 784.221191,704.337952 784.237793,728.991272 
	C784.239075,730.947083 784.237915,732.902954 784.237915,735.231750 
	C779.323547,735.231750 774.985107,735.571960 770.752625,735.051270 
	C769.225891,734.863525 767.953491,732.608887 766.890442,731.604736 
	C762.319153,733.279846 757.561646,735.988281 752.523621,736.693726 
	C735.371033,739.095398 722.409668,728.755005 719.874268,711.400574 
	C716.886353,690.948425 724.565186,676.666138 741.649963,671.489380 
M767.054504,705.395264 
	C766.997925,703.070190 767.159668,700.715271 766.845947,698.425415 
	C765.656616,689.744019 760.930115,685.344604 752.808899,685.132751 
	C745.191467,684.934021 739.510376,689.731506 737.853271,697.765625 
	C736.527710,704.192383 737.367676,710.363037 740.400391,716.143127 
	C743.049683,721.192139 747.447388,723.486450 753.113953,723.318115 
	C762.255737,723.046631 766.476257,717.879944 767.054504,705.395264 
z"/>
<path fill="#EE432C" opacity="1.000000" stroke="none" 
	d="
M269.727783,717.997070 
	C269.723663,722.824707 269.612518,727.156555 269.753204,731.480225 
	C269.845306,734.309814 268.733826,735.451233 265.927094,735.228516 
	C264.274811,735.097290 262.600342,735.267212 260.935944,735.263794 
	C250.893539,735.242981 251.506317,737.349365 251.510330,725.675049 
	C251.519379,699.371582 251.595047,673.067566 251.419937,646.765259 
	C251.392136,642.587463 252.820694,641.301758 256.822937,641.127380 
	C269.880493,640.558411 269.860809,640.436646 269.816986,653.199768 
	C269.789154,661.300720 269.811768,669.401855 269.811768,678.458191 
	C277.013153,672.212280 284.490387,669.302734 293.246155,670.623474 
	C301.871246,671.924438 307.437988,676.812683 309.864868,685.106628 
	C310.697235,687.951233 311.241516,690.984741 311.276794,693.939636 
	C311.421906,706.090332 311.255524,718.244568 311.350342,730.396362 
	C311.377686,733.899475 310.368652,735.442627 306.488190,735.417908 
	C293.333496,735.334045 293.316772,735.470398 293.250824,722.281311 
	C293.212524,714.623657 293.288147,706.965332 293.215607,699.308167 
	C293.137482,691.057739 289.474243,686.391174 283.201019,686.356018 
	C275.881744,686.315002 269.757538,692.518005 269.735931,700.018250 
	C269.719147,705.844727 269.729401,711.671326 269.727783,717.997070 
z"/>
<path fill="#EF422B" opacity="1.000000" stroke="none" 
	d="
M339.113953,736.895508 
	C326.237366,735.650391 319.055603,729.654236 318.063690,719.687561 
	C317.111694,710.121521 321.797974,702.808716 331.986877,700.012634 
	C338.154633,698.320068 344.759338,698.175781 351.183868,697.486328 
	C353.448486,697.243286 355.761108,697.447510 357.975037,697.447510 
	C358.950439,690.020447 355.320312,685.062378 348.233215,685.100220 
	C342.321198,685.131714 336.259613,686.029297 330.552429,687.594177 
	C324.623779,689.219849 324.841003,684.837402 323.459747,681.776733 
	C322.039337,678.629333 322.001343,676.166260 326.071533,674.801208 
	C336.663086,671.249329 347.362976,669.319397 358.454651,671.897156 
	C367.790192,674.066650 374.725372,679.779968 375.349884,689.309692 
	C376.335999,704.357422 375.612335,719.517151 375.611938,734.629517 
	C366.415161,736.859375 360.947784,735.583374 359.594940,731.929077 
	C352.816132,733.611694 346.188629,735.256775 339.113953,736.895508 
M342.130951,724.718506 
	C353.822906,725.024048 360.294281,718.411743 357.869446,707.818481 
	C353.054840,708.202576 348.103394,708.360840 343.230194,709.062622 
	C339.461060,709.605469 336.191803,711.300232 335.708618,715.770142 
	C335.230835,720.190186 337.159088,723.101074 342.130951,724.718506 
z"/>
<path fill="#EE432C" opacity="1.000000" stroke="none" 
	d="
M510.800903,735.273438 
	C508.050262,735.234131 505.709717,735.038635 503.392090,735.191284 
	C500.052429,735.411316 497.372589,734.905090 497.244751,730.032410 
	C490.261414,735.543579 482.893005,737.504822 474.814087,736.806274 
	C463.672302,735.843018 456.159668,728.672363 455.898682,718.595459 
	C455.698975,710.885437 458.777740,704.590271 465.993378,701.753845 
	C471.604645,699.548157 477.787842,698.594666 483.808472,697.704041 
	C487.851105,697.106079 492.053772,697.590271 496.096497,697.590271 
	C497.051544,690.695129 494.874786,686.279358 488.886230,685.798828 
	C482.586639,685.293335 475.973572,686.018799 469.800812,687.484131 
	C465.151031,688.588013 463.505188,687.294373 462.213013,683.297852 
	C460.927338,679.321472 459.948792,676.041870 465.450836,674.400452 
	C475.789948,671.315979 486.180756,669.295593 496.865784,672.047913 
	C507.593903,674.811340 513.674500,682.185425 513.950317,693.263733 
	C514.269348,706.074402 514.101746,718.900208 513.906616,731.715698 
	C513.888367,732.914734 512.157166,734.087708 510.800903,735.273438 
M489.468048,723.252258 
	C495.542389,720.105835 497.544403,715.038025 496.525024,707.623413 
	C490.824219,708.164917 485.226746,708.344788 479.774414,709.328918 
	C475.632263,710.076660 473.146912,713.003723 473.504211,717.557495 
	C473.861938,722.116333 476.727478,724.443848 480.995636,724.669495 
	C483.560394,724.805054 486.176025,723.978027 489.468048,723.252258 
z"/>
<path fill="#21364C" opacity="1.000000" stroke="none" 
	d="
M797.507690,680.530701 
	C797.968628,678.545105 798.154541,675.915527 799.229309,675.480225 
	C811.077820,670.680603 823.264526,668.789490 835.692383,673.153320 
	C845.709961,676.670837 849.584961,684.769287 849.907410,694.569824 
	C850.312317,706.875732 849.941711,719.205811 850.018799,731.524780 
	C850.036133,734.301819 849.042847,735.525085 846.220032,735.318054 
	C844.231628,735.172119 842.220337,735.143555 840.230286,735.256531 
	C836.743408,735.454651 833.512573,735.392944 833.395447,730.080750 
	C825.313416,735.876038 817.074646,738.056152 807.903625,736.257629 
	C798.887512,734.489502 793.369080,729.001648 792.331421,720.472900 
	C791.263611,711.696899 795.225220,704.238159 803.750488,700.996094 
	C808.635071,699.138489 814.030212,698.385925 819.270020,697.773132 
	C823.667786,697.258789 828.173462,697.667419 832.559326,697.667419 
	C833.210754,689.620483 829.838745,685.246704 822.285828,684.987854 
	C817.371094,684.819397 812.328186,685.576172 807.491089,686.611694 
	C800.030640,688.208740 800.084595,688.460693 797.507690,680.530701 
M811.795593,722.568604 
	C816.729248,726.258057 821.918396,725.677856 826.672729,722.662048 
	C831.803833,719.407227 833.915710,714.433960 832.769775,707.688843 
	C827.450989,708.055847 822.302368,708.028809 817.291931,708.847168 
	C809.912109,710.052429 807.765808,715.081116 811.795593,722.568604 
M833.768066,730.531982 
	C833.567688,730.447449 833.367371,730.362915 833.166992,730.278320 
	C833.221985,730.497864 833.276978,730.717346 833.768066,730.531982 
z"/>
<path fill="#EB3425" opacity="1.000000" stroke="none" 
	d="
M433.940765,448.009552 
	C432.694275,456.370819 429.130096,463.700409 422.837646,469.233307 
	C419.589081,472.089722 419.544220,474.975830 420.204865,478.488861 
	C424.207520,499.773193 433.712494,518.398132 447.611053,534.856995 
	C457.709595,546.815857 470.143097,555.978516 483.192749,564.426697 
	C487.494110,567.211365 491.928131,570.101318 495.350433,573.818665 
	C497.447510,576.096497 497.737793,580.037598 498.296326,583.618530 
	C488.673431,585.789124 480.872467,582.614990 473.524445,577.730164 
	C470.067108,575.431824 466.643646,573.082764 463.201996,570.760864 
	C437.251160,553.252930 421.488098,528.680176 412.724182,498.990295 
	C409.480103,488.000244 409.890625,475.914062 403.422241,466.006531 
	C414.569214,465.814911 422.832916,461.146210 429.082062,452.520691 
	C430.353943,450.765076 432.303589,449.500488 433.940765,448.009552 
z"/>
<path fill="#FEA30C" opacity="1.000000" stroke="none" 
	d="
M472.591370,232.902893 
	C473.247467,234.052811 473.763824,235.313644 473.896606,236.613632 
	C475.896942,256.197510 488.562500,268.116119 503.673553,278.363129 
	C510.712036,283.135986 517.550293,288.203247 524.550293,293.034180 
	C526.706360,294.522186 529.232056,295.487122 531.334229,297.036591 
	C532.778564,298.101196 533.784241,299.760986 534.631226,301.563843 
	C533.232056,302.900879 531.797485,303.629028 531.204407,304.787903 
	C525.777710,315.391266 520.003845,318.712860 507.953522,317.539490 
	C502.090912,309.444580 496.751404,301.259491 490.241730,294.145111 
	C487.169342,290.787354 481.938904,289.294983 477.537048,287.283997 
	C465.334045,281.708923 457.750397,271.780426 451.729828,260.342041 
	C450.717743,258.419159 450.283203,256.438446 453.354645,255.871185 
	C454.053467,255.302277 454.879547,254.835632 455.431488,254.148743 
	C461.070923,247.130356 466.665863,240.076202 472.591370,232.902893 
z"/>
<path fill="#F25220" opacity="1.000000" stroke="none" 
	d="
M434.144684,447.675995 
	C432.303589,449.500488 430.353943,450.765076 429.082062,452.520691 
	C422.832916,461.146210 414.569214,465.814911 403.002502,466.001709 
	C395.810028,465.873505 390.448029,463.495361 386.007263,458.599579 
	C388.276581,452.717529 390.105774,447.000336 392.895569,441.798340 
	C400.421204,427.765991 408.245148,413.889069 416.205261,400.097351 
	C418.232025,396.585785 420.737854,393.005219 425.602264,392.846222 
	C434.342957,410.076721 438.622406,428.023193 434.144684,447.675995 
z"/>
<path fill="#DA2C29" opacity="1.000000" stroke="none" 
	d="
M386.005219,458.999420 
	C390.448029,463.495361 395.810028,465.873505 402.566711,466.010437 
	C409.890625,475.914062 409.480103,488.000244 412.724182,498.990295 
	C421.488098,528.680176 437.251160,553.252930 463.201996,570.760864 
	C466.643646,573.082764 470.067108,575.431824 473.524445,577.730164 
	C480.872467,582.614990 488.673431,585.789124 498.139832,584.004517 
	C494.851685,591.357971 492.382812,592.466431 484.424408,589.552612 
	C449.776978,576.866760 426.050781,552.894226 413.220795,518.569641 
	C408.301239,505.408203 405.509583,491.451355 401.648346,477.495880 
	C379.291077,472.466034 365.006104,452.103424 363.064178,428.129791 
	C361.870056,413.388428 363.193024,398.939667 371.514771,386.297180 
	C374.779602,381.337250 380.005890,377.668396 384.677795,373.713562 
	C387.915100,378.271027 386.586456,381.226135 382.291077,383.488281 
	C381.169952,384.078674 380.168091,385.172424 379.479950,386.266724 
	C367.369141,405.524597 366.753235,425.477234 376.144165,446.308655 
	C379.522888,450.750549 382.764038,454.875000 386.005219,458.999420 
z"/>
<path fill="#FD9B0D" opacity="1.000000" stroke="none" 
	d="
M453.113525,255.589142 
	C450.283203,256.438446 450.717743,258.419159 451.729828,260.342041 
	C457.750397,271.780426 465.334045,281.708923 477.537048,287.283997 
	C481.938904,289.294983 487.169342,290.787354 490.241730,294.145111 
	C496.751404,301.259491 502.090912,309.444580 507.579346,317.588867 
	C496.904175,315.554901 489.916534,309.465546 486.648987,299.231049 
	C486.204285,297.838104 485.548828,296.372101 484.574188,295.329498 
	C483.660065,294.351624 482.193420,293.890259 480.969910,293.201630 
	C480.291901,294.569916 478.838043,296.095062 479.077148,297.278015 
	C479.889435,301.296997 481.299713,305.195099 482.481567,309.139343 
	C481.026031,309.290527 479.157349,310.102753 478.178558,309.491058 
	C467.827057,303.021729 457.594604,296.360352 447.375366,289.681396 
	C438.527832,283.898926 429.886658,277.898285 423.873993,268.858459 
	C421.509277,265.303162 418.683807,262.054291 416.027039,258.315186 
	C427.760620,249.849930 440.086975,249.392319 453.113525,255.589142 
z"/>
<path fill="#FD9B0D" opacity="1.000000" stroke="none" 
	d="
M584.159851,378.541748 
	C569.202332,381.952667 559.007751,372.874512 548.576538,364.885040 
	C543.234863,360.793762 538.628174,355.747559 533.633301,351.194305 
	C532.684753,350.329620 531.559570,349.519562 530.369690,349.080475 
	C519.999084,345.253754 511.179962,339.319702 504.785645,330.181366 
	C504.008575,329.070801 504.179993,327.296509 504.365662,325.490479 
	C513.039673,326.862152 520.976257,326.036560 528.489685,322.239624 
	C530.826965,321.058411 532.068420,321.709717 533.950256,323.434937 
	C538.032288,327.177216 542.625854,330.361450 546.978638,334.139038 
	C544.361511,338.406006 545.409729,341.725830 548.912903,344.250793 
	C554.509644,348.284760 560.146118,352.295532 566.018311,355.905243 
	C570.429932,358.617096 575.208313,360.549683 580.446594,357.410004 
	C581.337463,356.876007 582.694214,357.119110 583.835693,357.003174 
	C583.976074,364.029083 584.116455,371.055023 584.159851,378.541748 
z"/>
<path fill="#EE432C" opacity="1.000000" stroke="none" 
	d="
M524.861877,692.001343 
	C524.852417,686.673035 524.980286,681.839111 524.784790,677.018311 
	C524.659119,673.919189 525.956604,672.750427 528.887939,672.931458 
	C529.882568,672.992981 530.885132,672.923218 531.884094,672.914673 
	C540.534302,672.840637 540.534302,672.840637 543.250488,680.794739 
	C548.267334,675.285278 553.959717,671.236511 561.620605,671.026611 
	C567.832153,670.856384 568.951599,671.937622 568.474792,678.121277 
	C568.221436,681.406738 568.783936,685.573303 567.005493,687.664001 
	C565.583374,689.335754 561.179077,688.452759 558.101624,688.737671 
	C548.223938,689.652100 543.067749,695.233643 543.083801,705.004395 
	C543.098083,713.661926 542.938904,722.326660 543.256409,730.973572 
	C543.395325,734.758606 541.862122,735.423401 538.586304,735.432800 
	C525.022583,735.471924 525.031433,735.546570 524.991028,721.969727 
	C524.961792,712.146851 524.906067,702.324097 524.861877,692.001343 
z"/>
<path fill="#EB3425" opacity="1.000000" stroke="none" 
	d="
M376.006592,445.991180 
	C366.753235,425.477234 367.369141,405.524597 379.479950,386.266724 
	C380.168091,385.172424 381.169952,384.078674 382.291077,383.488281 
	C386.586456,381.226135 387.915100,378.271027 385.007568,373.661316 
	C395.453583,368.448425 405.930389,370.449188 415.218384,379.514038 
	C409.115051,385.748352 402.582001,391.111938 397.285706,397.500793 
	C389.542603,406.841278 384.209717,417.671112 380.977020,429.467010 
	C379.457214,435.012604 377.671692,440.485382 376.006592,445.991180 
z"/>
<path fill="#F25220" opacity="1.000000" stroke="none" 
	d="
M522.961487,492.565216 
	C534.653992,490.466431 545.784241,487.002991 555.880188,480.402344 
	C557.804077,479.144562 561.916016,478.841705 563.460999,480.065094 
	C565.023621,481.302490 565.567322,485.207275 564.986877,487.555359 
	C559.644348,509.167114 547.748169,524.695312 524.368408,528.947021 
	C523.653625,516.505310 523.307556,504.535248 522.961487,492.565216 
z"/>
<path fill="#ED3C24" opacity="1.000000" stroke="none" 
	d="
M376.144165,446.308655 
	C377.671692,440.485382 379.457214,435.012604 380.977020,429.467010 
	C384.209717,417.671112 389.542603,406.841278 397.285706,397.500793 
	C402.582001,391.111938 409.115051,385.748352 415.469482,379.776733 
	C418.989929,383.811096 422.136078,387.995087 425.442261,392.512634 
	C420.737854,393.005219 418.232025,396.585785 416.205261,400.097351 
	C408.245148,413.889069 400.421204,427.765991 392.895569,441.798340 
	C390.105774,447.000336 388.276581,452.717529 386.007263,458.599579 
	C382.764038,454.875000 379.522888,450.750549 376.144165,446.308655 
z"/>
<path fill="#EB3425" opacity="1.000000" stroke="none" 
	d="
M504.938843,529.431885 
	C484.703094,526.492371 472.646729,513.727539 464.879791,495.922028 
	C463.690735,493.196106 462.579254,490.257477 462.348602,487.344635 
	C462.134552,484.641388 463.146637,481.841064 463.618774,479.083496 
	C466.211304,479.591400 469.255951,479.397430 471.319458,480.726624 
	C481.155975,487.063080 491.733795,491.142426 503.520111,493.141388 
	C503.140991,495.321167 502.165588,496.987030 502.051208,498.710052 
	C501.562347,506.075104 501.463898,513.466675 500.943268,520.828796 
	C500.677307,524.589539 501.183929,527.684082 504.938843,529.431885 
z"/>
<path fill="#EB3425" opacity="1.000000" stroke="none" 
	d="
M503.102722,380.945312 
	C507.641724,383.413757 512.180725,385.882172 516.885132,388.649658 
	C491.208893,389.331024 465.566528,391.303009 441.072266,398.826599 
	C441.072266,386.639984 441.072266,374.752228 441.506104,362.520935 
	C445.238342,363.949341 449.073578,365.140076 451.736481,367.599945 
	C460.395081,375.598450 471.608032,376.874329 482.136993,379.903198 
	C488.972107,381.869415 495.912811,384.809601 503.102722,380.945312 
z"/>
<path fill="#ED3C24" opacity="1.000000" stroke="none" 
	d="
M502.921265,380.654114 
	C495.912811,384.809601 488.972107,381.869415 482.136993,379.903198 
	C471.608032,376.874329 460.395081,375.598450 451.736481,367.599945 
	C449.073578,365.140076 445.238342,363.949341 441.610687,362.095917 
	C441.518555,351.690887 441.755646,341.367340 441.985291,330.588318 
	C444.905548,332.879364 448.114594,335.384583 450.713409,338.413361 
	C463.592133,353.422943 479.058533,365.278595 495.627441,375.833008 
	C497.998138,377.343109 500.369049,378.852905 502.921265,380.654114 
z"/>
<path fill="#FEA30C" opacity="1.000000" stroke="none" 
	d="
M583.929321,356.542236 
	C582.694214,357.119110 581.337463,356.876007 580.446594,357.410004 
	C575.208313,360.549683 570.429932,358.617096 566.018311,355.905243 
	C560.146118,352.295532 554.509644,348.284760 548.912903,344.250793 
	C545.409729,341.725830 544.361511,338.406006 547.391479,334.169250 
	C551.206848,333.968964 554.662048,334.627563 557.926453,334.101685 
	C561.738831,333.487457 562.434509,331.169373 559.272827,328.407349 
	C563.614258,328.938019 567.943909,329.632385 572.300964,329.947144 
	C575.742371,330.195740 579.217468,329.977631 583.107056,329.925415 
	C583.698608,338.616455 583.860779,347.348907 583.929321,356.542236 
z"/>
<path fill="#EF422B" opacity="1.000000" stroke="none" 
	d="
M505.344849,529.617310 
	C501.183929,527.684082 500.677307,524.589539 500.943268,520.828796 
	C501.463898,513.466675 501.562347,506.075104 502.051208,498.710052 
	C502.165588,496.987030 503.140991,495.321167 503.874329,493.283142 
	C510.029114,492.802551 516.029785,492.667877 522.495972,492.549225 
	C523.307556,504.535248 523.653625,516.505310 524.003540,528.895874 
	C517.921814,529.478516 511.836365,529.640625 505.344849,529.617310 
z"/>
<path fill="#21364C" opacity="1.000000" stroke="none" 
	d="
M469.007812,449.882263 
	C466.670319,443.466003 467.652130,439.158752 471.862885,436.240356 
	C475.559723,433.678131 481.043671,433.932495 484.432037,436.823364 
	C488.060913,439.919373 489.050781,445.176361 486.827972,449.577087 
	C483.601929,455.964020 473.958466,457.639313 469.007812,449.882263 
z"/>
<path fill="#21364C" opacity="1.000000" stroke="none" 
	d="
M547.735352,434.842712 
	C554.160278,436.437012 557.506470,440.886139 556.670898,446.254486 
	C555.765076,452.074402 551.154785,455.759979 545.474670,455.205048 
	C540.610413,454.729889 536.769043,450.485748 536.611389,445.412415 
	C536.431213,439.617371 540.570862,435.543274 547.735352,434.842712 
z"/>
<path fill="#FEA30C" opacity="1.000000" stroke="none" 
	d="
M588.329102,330.135010 
	C589.578247,329.891571 591.143799,329.822937 592.844177,330.036346 
	C591.534546,330.315521 590.089966,330.312653 588.329102,330.135010 
z"/>
<path fill="#FD8510" opacity="1.000000" stroke="none" 
	d="
M406.612122,266.972046 
	C406.661865,267.445251 406.410645,268.127533 405.820496,268.993591 
	C405.758087,268.511993 406.034607,267.846588 406.612122,266.972046 
z"/>
<path fill="#FEA30C" opacity="1.000000" stroke="none" 
	d="
M585.278564,329.754852 
	C585.291870,329.366577 585.541626,329.329803 585.890747,329.665222 
	C585.968811,329.792328 585.493713,329.861328 585.278564,329.754852 
z"/>
<path fill="#FAF3EB" opacity="1.000000" stroke="none" 
	d="
M558.881104,328.391479 
	C562.434509,331.169373 561.738831,333.487457 557.926453,334.101685 
	C554.662048,334.627563 551.206848,333.968964 547.423096,333.804077 
	C542.625854,330.361450 538.032288,327.177216 533.950256,323.434937 
	C532.068420,321.709717 530.826965,321.058411 528.489685,322.239624 
	C520.976257,326.036560 513.039673,326.862152 504.406799,325.156342 
	C494.972961,322.734985 487.787018,317.806641 482.704163,309.423615 
	C481.299713,305.195099 479.889435,301.296997 479.077148,297.278015 
	C478.838043,296.095062 480.291901,294.569916 480.969910,293.201630 
	C482.193420,293.890259 483.660065,294.351624 484.574188,295.329498 
	C485.548828,296.372101 486.204285,297.838104 486.648987,299.231049 
	C489.916534,309.465546 496.904175,315.554901 507.622559,317.937805 
	C520.003845,318.712860 525.777710,315.391266 531.204407,304.787903 
	C531.797485,303.629028 533.232056,302.900879 534.638916,301.932312 
	C536.016418,303.848053 537.814209,305.762848 537.920715,307.767487 
	C538.675476,321.981415 544.029541,327.497681 558.881104,328.391479 
z"/>
<path fill="#FAF3EB" opacity="1.000000" stroke="none" 
	d="
M611.241211,683.743103 
	C613.324463,689.545593 615.282043,694.978394 617.517273,701.181702 
	C612.822693,701.181702 608.765137,701.181763 604.707581,701.181763 
	C600.576721,701.181763 596.445862,701.181702 591.516174,701.181702 
	C595.803040,688.613892 599.920715,676.542297 604.297363,663.711304 
	C606.777466,670.863281 608.946472,677.118347 611.241211,683.743103 
z"/>
<path fill="#FAF3EB" opacity="1.000000" stroke="none" 
	d="
M408.241577,719.854736 
	C406.543823,716.023071 404.676636,712.529419 403.878387,708.806641 
	C403.195221,705.620667 403.747223,702.171814 403.735352,698.839355 
	C403.711334,692.107483 407.779053,686.919800 414.186432,685.529541 
	C421.266144,683.993469 427.819031,686.922363 430.515747,693.010132 
	C433.255310,699.194580 433.524658,705.609070 431.572723,712.052673 
	C428.345551,722.706116 418.351044,726.156738 408.241577,719.854736 
z"/>
<path fill="#FAF3EB" opacity="1.000000" stroke="none" 
	d="
M666.602417,694.945129 
	C670.399963,686.919861 675.762634,684.051147 683.564514,685.587158 
	C690.178772,686.889404 693.914795,691.819519 694.161865,699.864380 
	C694.278992,703.681885 694.386475,707.540161 693.979858,711.324219 
	C693.288147,717.763000 689.283813,722.024780 683.521729,723.085266 
	C676.777039,724.326599 670.842834,721.809204 667.816956,716.148987 
	C664.236267,709.450867 664.339844,702.426697 666.602417,694.945129 
z"/>
<path fill="#FAF3EB" opacity="1.000000" stroke="none" 
	d="
M767.051392,705.858154 
	C766.476257,717.879944 762.255737,723.046631 753.113953,723.318115 
	C747.447388,723.486450 743.049683,721.192139 740.400391,716.143127 
	C737.367676,710.363037 736.527710,704.192383 737.853271,697.765625 
	C739.510376,689.731506 745.191467,684.934021 752.808899,685.132751 
	C760.930115,685.344604 765.656616,689.744019 766.845947,698.425415 
	C767.159668,700.715271 766.997925,703.070190 767.051392,705.858154 
z"/>
<path fill="#FAF3EB" opacity="1.000000" stroke="none" 
	d="
M341.744080,724.622375 
	C337.159088,723.101074 335.230835,720.190186 335.708618,715.770142 
	C336.191803,711.300232 339.461060,709.605469 343.230194,709.062622 
	C348.103394,708.360840 353.054840,708.202576 357.869446,707.818481 
	C360.294281,718.411743 353.822906,725.024048 341.744080,724.622375 
z"/>
<path fill="#FAF3EB" opacity="1.000000" stroke="none" 
	d="
M489.118408,723.417908 
	C486.176025,723.978027 483.560394,724.805054 480.995636,724.669495 
	C476.727478,724.443848 473.861938,722.116333 473.504211,717.557495 
	C473.146912,713.003723 475.632263,710.076660 479.774414,709.328918 
	C485.226746,708.344788 490.824219,708.164917 496.525024,707.623413 
	C497.544403,715.038025 495.542389,720.105835 489.118408,723.417908 
z"/>
<path fill="#FAF3EB" opacity="1.000000" stroke="none" 
	d="
M811.500183,722.284668 
	C807.765808,715.081116 809.912109,710.052429 817.291931,708.847168 
	C822.302368,708.028809 827.450989,708.055847 832.769775,707.688843 
	C833.915710,714.433960 831.803833,719.407227 826.672729,722.662048 
	C821.918396,725.677856 816.729248,726.258057 811.500183,722.284668 
z"/>
<path fill="#FDF6EF" opacity="1.000000" stroke="none" 
	d="
M833.550049,730.734436 
	C833.276978,730.717346 833.221985,730.497864 833.166992,730.278320 
	C833.367371,730.362915 833.567688,730.447449 833.550049,730.734436 
z"/>
</svg>